<?xml version="1.0" encoding="UTF-8"?>
<svg width="700pt" height="700pt" version="1.1" viewBox="0 0 700 700" xmlns="http://www.w3.org/2000/svg" xmlns:xlink="http://www.w3.org/1999/xlink">
 <defs>
  <symbol id="v" overflow="visible">
   <path d="m16.406-0.98438c-0.84375 0.4375-1.7266 0.76562-2.6406 0.98438-0.91797 0.22656-1.875 0.34375-2.875 0.34375-2.9688 0-5.3242-0.82812-7.0625-2.4844-1.7422-1.6641-2.6094-3.9219-2.6094-6.7656 0-2.8516 0.86719-5.1133 2.6094-6.7812 1.7383-1.6641 4.0938-2.5 7.0625-2.5 1 0 1.957 0.11719 2.875 0.34375 0.91406 0.21875 1.7969 0.54688 2.6406 0.98438v3.7031c-0.84375-0.58203-1.6836-1.0078-2.5156-1.2812-0.83594-0.26953-1.7109-0.40625-2.625-0.40625-1.6367 0-2.9297 0.52734-3.875 1.5781-0.9375 1.0547-1.4062 2.5078-1.4062 4.3594 0 1.8359 0.46875 3.2812 1.4062 4.3438 0.94531 1.0547 2.2383 1.5781 3.875 1.5781 0.91406 0 1.7891-0.13281 2.625-0.40625 0.83203-0.26953 1.6719-0.69531 2.5156-1.2812z"/>
  </symbol>
  <symbol id="c" overflow="visible">
   <path d="m12.016-9.75c-0.375-0.17578-0.75-0.30469-1.125-0.39062-0.36719-0.082031-0.73438-0.125-1.1094-0.125-1.1055 0-1.9531 0.35547-2.5469 1.0625-0.59375 0.71094-0.89062 1.7188-0.89062 3.0312v6.1719h-4.2812v-13.406h4.2812v2.2031c0.55078-0.875 1.1797-1.5078 1.8906-1.9062 0.71875-0.40625 1.5703-0.60938 2.5625-0.60938 0.14453 0 0.30078 0.007812 0.46875 0.015625 0.16406 0.011719 0.41016 0.039063 0.73438 0.078125z"/>
  </symbol>
  <symbol id="b" overflow="visible">
   <path d="m15.438-6.7344v1.2188h-10.016c0.10156 1.0117 0.46094 1.7656 1.0781 2.2656 0.625 0.5 1.4922 0.75 2.6094 0.75 0.90625 0 1.8281-0.12891 2.7656-0.39062 0.94531-0.26953 1.9219-0.67578 2.9219-1.2188v3.2969c-1.0117 0.38672-2.0273 0.67188-3.0469 0.85938-1.0117 0.19531-2.0234 0.29688-3.0312 0.29688-2.4297 0-4.3125-0.61328-5.6562-1.8438-1.3438-1.2266-2.0156-2.957-2.0156-5.1875 0-2.1875 0.66016-3.9062 1.9844-5.1562 1.3203-1.25 3.1406-1.875 5.4531-1.875 2.1016 0 3.7852 0.63672 5.0469 1.9062 1.2695 1.2617 1.9062 2.9531 1.9062 5.0781zm-4.4062-1.4219c0-0.8125-0.24219-1.4688-0.71875-1.9688-0.46875-0.5-1.0898-0.75-1.8594-0.75-0.82422 0-1.4961 0.23438-2.0156 0.70312-0.52344 0.46875-0.84375 1.1406-0.96875 2.0156z"/>
  </symbol>
  <symbol id="l" overflow="visible">
   <path d="m8.0625-6.0312c-0.89844 0-1.5703 0.15234-2.0156 0.45312-0.44922 0.30469-0.67188 0.75-0.67188 1.3438 0 0.54297 0.17578 0.96875 0.53125 1.2812 0.36328 0.30469 0.86719 0.45312 1.5156 0.45312 0.8125 0 1.4883-0.28516 2.0312-0.85938 0.55078-0.58203 0.82812-1.3047 0.82812-2.1719v-0.5zm6.5469-1.6094v7.6406h-4.3281v-1.9844c-0.57422 0.8125-1.2188 1.4062-1.9375 1.7812-0.71094 0.36328-1.5781 0.54688-2.6094 0.54688-1.3867 0-2.5156-0.39844-3.3906-1.2031-0.86719-0.8125-1.2969-1.8633-1.2969-3.1562 0-1.5703 0.53906-2.7227 1.625-3.4531 1.082-0.73828 2.7812-1.1094 5.0938-1.1094h2.5156v-0.32812c0-0.67578-0.26562-1.1719-0.79688-1.4844-0.53125-0.32031-1.3672-0.48438-2.5-0.48438-0.91797 0-1.7734 0.09375-2.5625 0.28125-0.79297 0.17969-1.5273 0.44922-2.2031 0.8125v-3.2656c0.91406-0.21875 1.8359-0.38281 2.7656-0.5 0.92578-0.11328 1.8516-0.17188 2.7812-0.17188 2.4141 0 4.1602 0.48047 5.2344 1.4375 1.0703 0.94922 1.6094 2.4961 1.6094 4.6406z"/>
  </symbol>
  <symbol id="a" overflow="visible">
   <path d="m6.7344-17.203v3.7969h4.4219v3.0625h-4.4219v5.6875c0 0.625 0.125 1.0469 0.375 1.2656s0.73828 0.32812 1.4688 0.32812h2.2031v3.0625h-3.6719c-1.6992 0-2.9023-0.35156-3.6094-1.0625-0.69922-0.70703-1.0469-1.9062-1.0469-3.5938v-5.6875h-2.125v-3.0625h2.125v-3.7969z"/>
  </symbol>
  <symbol id="k" overflow="visible">
   <path d="m11.172-11.438v-7.1719h4.3125v18.609h-4.3125v-1.9375c-0.59375 0.79297-1.2461 1.3711-1.9531 1.7344-0.71094 0.36328-1.5273 0.54688-2.4531 0.54688-1.6562 0-3.0156-0.65625-4.0781-1.9688s-1.5938-3-1.5938-5.0625 0.53125-3.75 1.5938-5.0625 2.4219-1.9688 4.0781-1.9688c0.91406 0 1.7266 0.1875 2.4375 0.5625 0.71875 0.36719 1.375 0.9375 1.9688 1.7188zm-2.8281 8.6719c0.91406 0 1.6133-0.33203 2.0938-1 0.48828-0.66406 0.73438-1.6406 0.73438-2.9219 0-1.2695-0.24609-2.2383-0.73438-2.9062-0.48047-0.67578-1.1797-1.0156-2.0938-1.0156-0.90625 0-1.6055 0.33984-2.0938 1.0156-0.48047 0.66797-0.71875 1.6367-0.71875 2.9062 0 1.2812 0.23828 2.2578 0.71875 2.9219 0.48828 0.66797 1.1875 1 2.0938 1z"/>
  </symbol>
  <symbol id="j" overflow="visible">
   <path d="m9.1875-2.7656c0.91406 0 1.6133-0.33203 2.0938-1 0.48828-0.66406 0.73438-1.6406 0.73438-2.9219 0-1.2695-0.24609-2.2383-0.73438-2.9062-0.48047-0.67578-1.1797-1.0156-2.0938-1.0156-0.91797 0-1.6211 0.33984-2.1094 1.0156-0.49219 0.66797-0.73438 1.6367-0.73438 2.9062 0 1.2734 0.24219 2.2461 0.73438 2.9219 0.48828 0.66797 1.1914 1 2.1094 1zm-2.8438-8.6719c0.58203-0.78125 1.2344-1.3516 1.9531-1.7188 0.71875-0.375 1.5469-0.5625 2.4844-0.5625 1.6445 0 3 0.65625 4.0625 1.9688s1.5938 3 1.5938 5.0625-0.53125 3.75-1.5938 5.0625-2.418 1.9688-4.0625 1.9688c-0.9375 0-1.7656-0.18359-2.4844-0.54688-0.71875-0.375-1.3711-0.95312-1.9531-1.7344v1.9375h-4.2812v-18.609h4.2812z"/>
  </symbol>
  <symbol id="i" overflow="visible">
   <path d="m0.29688-13.406h4.2812l3.6094 9.0938 3.0625-9.0938h4.2812l-5.6406 14.672c-0.5625 1.4883-1.2266 2.5312-1.9844 3.125-0.75 0.59375-1.7461 0.89062-2.9844 0.89062h-2.4688v-2.8125h1.3438c0.71875 0 1.2422-0.11719 1.5781-0.34375 0.33203-0.23047 0.59375-0.64062 0.78125-1.2344l0.10938-0.375z"/>
  </symbol>
  <symbol id="e" overflow="visible">
   <path d="m2.25-17.859h5.1406l6.5 12.25v-12.25h4.3594v17.859h-5.1406l-6.5-12.25v12.25h-4.3594z"/>
  </symbol>
  <symbol id="u" overflow="visible">
   <path d="m2.0625-13.406h4.2812v13.406h-4.2812zm0-5.2031h4.2812v3.4844h-4.2812z"/>
  </symbol>
  <symbol id="h" overflow="visible">
   <path d="m12.891-12.984v3.5c-0.58594-0.39453-1.1719-0.6875-1.7656-0.875-0.58594-0.19531-1.1875-0.29688-1.8125-0.29688-1.1992 0-2.1328 0.35156-2.7969 1.0469-0.66797 0.69922-1 1.6719-1 2.9219s0.33203 2.2266 1 2.9219c0.66406 0.69922 1.5977 1.0469 2.7969 1.0469 0.66406 0 1.3008-0.097656 1.9062-0.29688 0.60156-0.19531 1.1602-0.49219 1.6719-0.89062v3.5156c-0.67969 0.24219-1.3594 0.42188-2.0469 0.54688s-1.3828 0.1875-2.0781 0.1875c-2.418 0-4.3086-0.61719-5.6719-1.8594-1.3672-1.2383-2.0469-2.9609-2.0469-5.1719 0-2.207 0.67969-3.9297 2.0469-5.1719 1.3633-1.2383 3.2539-1.8594 5.6719-1.8594 0.70703 0 1.3984 0.0625 2.0781 0.1875 0.6875 0.125 1.3672 0.30859 2.0469 0.54688z"/>
  </symbol>
  <symbol id="t" overflow="visible">
   <path d="m2.0625-18.609h4.2812v10.125l4.9219-4.9219h4.9844l-6.5469 6.1562 7.0625 7.25h-5.2031l-5.2188-5.5938v5.5938h-4.2812z"/>
  </symbol>
  <symbol id="s" overflow="visible">
   <path d="m9.4062-10.953c0.71875 0 1.2656-0.15625 1.6406-0.46875 0.375-0.32031 0.5625-0.79688 0.5625-1.4219 0-0.60156-0.1875-1.0664-0.5625-1.3906-0.375-0.32031-0.92188-0.48438-1.6406-0.48438h-2.5469v3.7656zm0.15625 7.8125c0.92578 0 1.6172-0.19141 2.0781-0.57812 0.46875-0.39453 0.70312-0.98438 0.70312-1.7656s-0.23438-1.3633-0.70312-1.75c-0.46094-0.38281-1.1523-0.57812-2.0781-0.57812h-2.7031v4.6719zm4.2812-6.4219c0.98828 0.29297 1.7539 0.82422 2.2969 1.5938 0.53906 0.77344 0.8125 1.7188 0.8125 2.8438 0 1.7305-0.58594 3.0156-1.75 3.8594-1.168 0.84375-2.9375 1.2656-5.3125 1.2656h-7.6406v-17.859h6.9062c2.4883 0 4.2852 0.375 5.3906 1.125 1.1133 0.75 1.6719 1.9492 1.6719 3.5938 0 0.875-0.20312 1.6211-0.60938 2.2344-0.40625 0.60547-0.99609 1.0547-1.7656 1.3438z"/>
  </symbol>
  <symbol id="r" overflow="visible">
   <path d="m2.0625-18.609h4.2812v18.609h-4.2812z"/>
  </symbol>
  <symbol id="g" overflow="visible">
   <path d="m1.9219-5.2188v-8.1875h4.2969v1.3438c0 0.73047-0.007812 1.6406-0.015625 2.7344v2.2031c0 1.0742 0.023437 1.8516 0.078125 2.3281 0.050781 0.46875 0.14453 0.8125 0.28125 1.0312 0.17578 0.28125 0.40625 0.5 0.6875 0.65625 0.28906 0.14844 0.61719 0.21875 0.98438 0.21875 0.89453 0 1.5977-0.34375 2.1094-1.0312 0.50781-0.6875 0.76562-1.6406 0.76562-2.8594v-6.625h4.2812v13.406h-4.2812v-1.9375c-0.65625 0.78125-1.3438 1.3594-2.0625 1.7344-0.71875 0.36328-1.5156 0.54688-2.3906 0.54688-1.543 0-2.7188-0.47266-3.5312-1.4219-0.80469-0.94531-1.2031-2.3281-1.2031-4.1406z"/>
  </symbol>
  <symbol id="f" overflow="visible">
   <path d="m15.531-8.1562v8.1562h-4.3125v-6.2188c0-1.1758-0.027344-1.9844-0.078125-2.4219-0.054687-0.4375-0.14062-0.75781-0.26562-0.96875-0.16797-0.28125-0.39844-0.49219-0.6875-0.64062-0.28125-0.15625-0.60547-0.23438-0.96875-0.23438-0.89844 0-1.6016 0.34375-2.1094 1.0312-0.51172 0.6875-0.76562 1.6406-0.76562 2.8594v6.5938h-4.2812v-18.609h4.2812v7.1719c0.64453-0.78125 1.3281-1.3516 2.0469-1.7188 0.72656-0.375 1.5312-0.5625 2.4062-0.5625 1.5508 0 2.7266 0.47656 3.5312 1.4219 0.80078 0.94922 1.2031 2.3281 1.2031 4.1406z"/>
  </symbol>
  <symbol id="q" overflow="visible">
   <path d="m10.875-18.609v2.8125h-2.375c-0.60547 0-1.0273 0.10938-1.2656 0.32812-0.24219 0.21875-0.35938 0.60156-0.35938 1.1406v0.92188h3.6719v3.0625h-3.6719v10.344h-4.2812v-10.344h-2.125v-3.0625h2.125v-0.92188c0-1.457 0.40625-2.5352 1.2188-3.2344 0.8125-0.69531 2.0703-1.0469 3.7812-1.0469z"/>
  </symbol>
  <symbol id="d" overflow="visible">
   <path d="m8.4375-10.656c-0.94922 0-1.6719 0.34375-2.1719 1.0312-0.5 0.67969-0.75 1.6562-0.75 2.9375s0.25 2.2656 0.75 2.9531c0.5 0.67969 1.2227 1.0156 2.1719 1.0156 0.92578 0 1.6328-0.33594 2.125-1.0156 0.5-0.6875 0.75-1.6719 0.75-2.9531s-0.25-2.2578-0.75-2.9375c-0.49219-0.6875-1.1992-1.0312-2.125-1.0312zm0-3.0625c2.3008 0 4.0977 0.625 5.3906 1.875 1.3008 1.2422 1.9531 2.9609 1.9531 5.1562 0 2.1992-0.65234 3.9219-1.9531 5.1719-1.293 1.2422-3.0898 1.8594-5.3906 1.8594-2.3125 0-4.125-0.61719-5.4375-1.8594-1.3047-1.25-1.9531-2.9727-1.9531-5.1719 0-2.1953 0.64844-3.9141 1.9531-5.1562 1.3125-1.25 3.125-1.875 5.4375-1.875z"/>
  </symbol>
  <symbol id="p" overflow="visible">
   <path d="m14.469-11.172c0.53906-0.83203 1.1875-1.4609 1.9375-1.8906 0.75-0.4375 1.5664-0.65625 2.4531-0.65625 1.5391 0 2.7109 0.47656 3.5156 1.4219 0.8125 0.94922 1.2188 2.3281 1.2188 4.1406v8.1562h-4.3125v-6.9844c0.007812-0.10156 0.015625-0.21094 0.015625-0.32812 0.007813-0.11328 0.015625-0.26953 0.015625-0.46875 0-0.95703-0.14062-1.6445-0.42188-2.0625-0.28125-0.42578-0.73438-0.64062-1.3594-0.64062-0.8125 0-1.4453 0.33594-1.8906 1-0.4375 0.66797-0.66406 1.6367-0.67188 2.9062v6.5781h-4.3125v-6.9844c0-1.4883-0.13281-2.4414-0.39062-2.8594-0.25-0.42578-0.70312-0.64062-1.3594-0.64062-0.8125 0-1.4453 0.33984-1.8906 1.0156-0.44922 0.66797-0.67188 1.625-0.67188 2.875v6.5938h-4.3125v-13.406h4.3125v1.9688c0.51953-0.75781 1.1172-1.3281 1.7969-1.7031 0.6875-0.38281 1.4414-0.57812 2.2656-0.57812 0.92578 0 1.7422 0.22656 2.4531 0.67188 0.70703 0.44922 1.2422 1.0742 1.6094 1.875z"/>
  </symbol>
  <symbol id="o" overflow="visible">
   <path d="m15.531-8.1562v8.1562h-4.3125v-6.25c0-1.1562-0.027344-1.9531-0.078125-2.3906-0.054687-0.4375-0.14062-0.75781-0.26562-0.96875-0.16797-0.28125-0.39844-0.49219-0.6875-0.64062-0.28125-0.15625-0.60547-0.23438-0.96875-0.23438-0.89844 0-1.6016 0.34375-2.1094 1.0312-0.51172 0.6875-0.76562 1.6406-0.76562 2.8594v6.5938h-4.2812v-13.406h4.2812v1.9688c0.64453-0.78125 1.3281-1.3516 2.0469-1.7188 0.72656-0.375 1.5312-0.5625 2.4062-0.5625 1.5508 0 2.7266 0.47656 3.5312 1.4219 0.80078 0.94922 1.2031 2.3281 1.2031 4.1406z"/>
  </symbol>
  <symbol id="n" overflow="visible">
   <path d="m2.25-17.859h7.6406c2.2695 0 4.0156 0.50781 5.2344 1.5156 1.2188 1.0117 1.8281 2.4492 1.8281 4.3125 0 1.875-0.60938 3.3203-1.8281 4.3281-1.2188 1-2.9648 1.5-5.2344 1.5h-3.0312v6.2031h-4.6094zm4.6094 3.3438v4.9844h2.5469c0.89453 0 1.582-0.21875 2.0625-0.65625 0.48828-0.4375 0.73438-1.0508 0.73438-1.8438 0-0.80078-0.24609-1.4141-0.73438-1.8438-0.48047-0.42578-1.168-0.64062-2.0625-0.64062z"/>
  </symbol>
  <symbol id="m" overflow="visible">
   <path d="m2.0625-13.406h4.2812v13.172c0 1.7891-0.43359 3.1562-1.2969 4.0938-0.86719 0.94531-2.1172 1.4219-3.75 1.4219h-2.1094v-2.8125h0.73438c0.82031 0 1.3828-0.18359 1.6875-0.54688 0.30078-0.36719 0.45312-1.0859 0.45312-2.1562zm0-5.2031h4.2812v3.4844h-4.2812z"/>
  </symbol>
 </defs>
 <g>
  <path d="m222.37 103.38c0 94.066 31.355 174.91 75.941 210.67-24.988 0.48828-47.523 1.4688-66.633 2.9414-52.422 4.4062-57.812 9.7969-56.344 17.145l22.539 65.16c3.4297 6.8594 9.7969 11.27 48.504 14.699 24.496 1.9609 55.852 3.4297 89.168 3.918v100.93c0 7.3477 6.3711 13.719 13.719 13.719h0.48828c7.3477 0 13.719-6.3711 13.719-13.719v-100.92c33.316-0.48828 64.184-1.4688 88.188-3.918 38.707-3.4297 46.543-8.3281 48.504-14.699l23.027-65.16c1.9609-7.3477-3.918-12.738-55.852-16.656-19.109-1.4688-41.645-2.4492-66.633-2.9414 44.586-35.766 75.941-117.09 75.941-210.67l-0.98047-26.945c0-7.3477-6.3711-11.758-40.664-15.68-19.598-1.9609-44.586-3.4297-71.531-3.918v-6.8594c0-7.8398-6.3711-13.719-13.719-13.719-7.8398 0-13.719 6.3711-13.719 13.719v6.8594c-26.945 0.48828-52.422 1.4688-72.02 3.918-32.824 3.4297-40.176 7.8398-40.664 14.699zm261.14 230.76c-24.988 2.4492-66.633 4.8984-120.04 5.3906v-6.8594c4.4102-0.98047 8.3281-1.9609 12.25-3.4297 48.012 0.49219 84.758 2.4492 107.79 4.8984zm-29.395 17.641-8.8203 48.504c-10.777 0.98047-23.516 1.4688-38.215 2.4492l3.918-48.992c15.68-0.49219 30.379-0.98047 43.117-1.9609zm8.3281-248.4c0 85.738-26.457 160.21-64.184 195 24.988-40.664 41.156-112.2 41.156-195v-11.758c10.289-0.98047 17.637-2.4492 23.027-3.918-0.49219 5.3867 0 10.773 0 15.676zm-80.84 193.52c17.148-47.523 24.008-130.81 24.008-193.53v-8.8203c6.3711-0.48828 12.738-0.98047 18.129-1.4688v10.289c0.48828 90.152-18.129 159.72-42.137 193.53zm-17.637-226.84c42.133 0.48828 73.492 3.4297 89.66 6.3711-15.68 2.9414-47.035 5.8789-89.66 6.3711zm0 25.965c9.3086 0 18.617-0.48828 27.438-0.48828v8.3281c0 97.496-13.227 168.54-27.438 199.41zm-27.93-25.965v12.738c-42.625-0.48828-73.98-3.4297-90.148-6.3711 16.168-2.9375 47.523-5.8789 90.148-6.3672zm-18.617 226.84c-23.516-33.805-42.625-103.38-42.625-193.53v-10.289c5.8789 0.48828 11.758 0.98047 18.129 1.4688v8.8203c0 62.715 7.3477 146 24.496 193.53zm-9.7969-193.52v-8.3281c8.8203 0.48828 18.617 0.48828 27.926 0.48828v208.71c-13.719-29.398-27.926-101.42-27.926-200.88zm-70.551 0c0-5.3906 0-10.289 0.48828-15.68 5.3906 1.4688 12.738 2.9414 23.027 3.918v11.758c0 83.289 16.168 154.33 41.156 195-38.707-34.293-64.672-108.77-64.672-194.99zm85.738 225.86c4.4102 1.4688 8.8203 2.9414 13.227 3.918v6.3711c-53.895-0.48828-95.539-2.4492-120.52-5.3906 23.027-2.4492 59.773-4.4062 107.3-4.8984zm-37.727 24.496 3.918 48.992c-13.227-0.48828-25.477-1.4688-35.766-1.9609l-6.8594-48.504c11.762 0.49609 24.988 0.98438 38.707 1.4727zm-90.148-6.8594c8.3281 1.4688 20.086 2.9414 36.254 4.4102h0.98047l6.8594 48.016c-14.699-1.4688-24.008-3.4297-27.438-4.8984zm108.28 56.344-3.918-48.992c11.758 0.48828 24.008 0.48828 36.746 0.48828v48.992c-11.762 0.003907-22.539-0.48828-32.828-0.48828zm60.754-48.504c11.27 0 22.539 0 33.316-0.48828l-3.918 48.992c-9.3086 0.48828-19.109 0.48828-29.395 0.48828zm123.46 39.688c-3.4297 1.4688-12.738 3.4297-27.438 4.8984l8.8203-48.016c15.68-1.4688 26.945-2.4492 35.277-3.918z"/>
  <use x="144.960938" y="633.492188" xlink:href="#v"/>
  <use x="162.9375" y="633.492188" xlink:href="#c"/>
  <use x="175.019531" y="633.492188" xlink:href="#b"/>
  <use x="191.632812" y="633.492188" xlink:href="#l"/>
  <use x="208.164062" y="633.492188" xlink:href="#a"/>
  <use x="219.875" y="633.492188" xlink:href="#b"/>
  <use x="236.488281" y="633.492188" xlink:href="#k"/>
  <use x="262.554688" y="633.492188" xlink:href="#j"/>
  <use x="280.089844" y="633.492188" xlink:href="#i"/>
  <use x="304.585938" y="633.492188" xlink:href="#e"/>
  <use x="325.085938" y="633.492188" xlink:href="#u"/>
  <use x="333.484375" y="633.492188" xlink:href="#h"/>
  <use x="348.003906" y="633.492188" xlink:href="#t"/>
  <use x="372.824219" y="633.492188" xlink:href="#s"/>
  <use x="391.496094" y="633.492188" xlink:href="#r"/>
  <use x="399.894531" y="633.492188" xlink:href="#g"/>
  <use x="417.332031" y="633.492188" xlink:href="#a"/>
  <use x="429.042969" y="633.492188" xlink:href="#f"/>
  <use x="144.960938" y="657.988281" xlink:href="#q"/>
  <use x="155.617188" y="657.988281" xlink:href="#c"/>
  <use x="167.699219" y="657.988281" xlink:href="#d"/>
  <use x="184.527344" y="657.988281" xlink:href="#p"/>
  <use x="218.582031" y="657.988281" xlink:href="#a"/>
  <use x="230.292969" y="657.988281" xlink:href="#f"/>
  <use x="247.734375" y="657.988281" xlink:href="#b"/>
  <use x="272.875" y="657.988281" xlink:href="#e"/>
  <use x="293.378906" y="657.988281" xlink:href="#d"/>
  <use x="310.207031" y="657.988281" xlink:href="#g"/>
  <use x="327.648438" y="657.988281" xlink:href="#o"/>
  <use x="353.613281" y="657.988281" xlink:href="#n"/>
  <use x="371.570312" y="657.988281" xlink:href="#c"/>
  <use x="383.648438" y="657.988281" xlink:href="#d"/>
  <use x="400.480469" y="657.988281" xlink:href="#m"/>
  <use x="408.875" y="657.988281" xlink:href="#b"/>
  <use x="425.492188" y="657.988281" xlink:href="#h"/>
  <use x="440.011719" y="657.988281" xlink:href="#a"/>
 </g>
</svg>
